<svg xmlns="http://www.w3.org/2000/svg" width="293" height="141" viewBox="0 0 293 141">
    <g fill="none" fill-rule="evenodd">
        <path fill="#81C241" d="M.164 140.099h285.858V6.834H.164z"/>
        <path fill="#000" d="M7.064 133.265h285.857V0H7.064z"/>
        <path fill="#FFBF00" d="M33.193 48.504c8.727-6.128 20.751-3.992 26.878 4.735 6.128 8.728 3.993 20.751-4.734 26.88L33.193 48.503z"/>
        <path fill="#58268E" d="M82.216 84.807c-8.728 6.128-20.751 3.992-26.88-4.735-6.127-8.728-3.992-20.751 4.735-26.88l22.145 31.615z"/>
        <path fill="#82C51B" d="M39.553 91.12c-6.128-8.728-3.992-20.75 4.735-26.879 8.728-6.128 20.75-3.992 26.879 4.735L39.553 91.12z"/>
        <path fill="#01703C" d="M75.856 42.144c6.128 8.728 3.992 20.751-4.735 26.88-8.728 6.127-20.751 3.991-26.88-4.736l31.615-22.144z"/>
        <path fill="#FFF" d="M57.89 62.477a2.506 2.506 0 1 1 0 5.013 2.506 2.506 0 0 1 0-5.012M141.682 61.78h.697c.095 0 .139 0 .229.05 1.858.28 3.068 1.3 3.068 2.55 0 .977-.792 1.953-3.436 1.953h-6.406c.832-2.784 3.064-4.552 5.848-4.552m0 14.254c-2.88 0-5.2-1.808-5.986-4.736h7.888c3.9 0 7.799-2.321 7.799-6.824 0-3.063-1.947-5.707-4.736-7.102a13.364 13.364 0 0 0-4.268-.976h-.697c-6.684 0-12.207 5.663-12.207 12.536 0 6.918 5.523 12.44 12.207 12.44 3.392 0 6.176-1.065 8.263-2.878l-4.18-4.04c-1.065 1.072-2.6 1.58-4.083 1.58M127.803 57c-2.832 0-5.34 1.439-6.917 3.62-.975-2.134-3.11-3.62-5.617-3.62V80.86h6.128V69.07c0-3.992 1.67-5.99 5.385-5.99h2.739V57h-1.718zM190.658 75.71c-3.392 0-6.13-2.922-6.13-6.732 0-3.9 2.738-6.868 6.13-6.868 3.387 0 6.126 3.063 6.126 6.868 0 3.715-2.739 6.733-6.126 6.733zm6.081-24.881v8.402c-1.812-1.763-4.273-2.784-7.013-2.784-6.219.045-11.325 5.429-11.325 12.486s5.106 12.396 11.325 12.396h.28c2.694 0 5.713-1.071 7.71-3.392a6.141 6.141 0 0 0 5.2 2.879V50.829h-6.177zM104.684 70.74V50.919H98.65v19.73c0 6.453 3.667 10.63 10.584 9.888v-5.478c-3.018.232-4.55-1.021-4.55-4.317"/>
        <path fill="#FFF" d="M98.649 69.116h6.034V50.965h-6.034z"/>
        <path fill="#FFF" d="M98.65 69.07v-6.035a6.023 6.023 0 0 1 6.033 6.035H98.65zM110.766 63.035h-6.035A6.022 6.022 0 0 1 110.766 57v6.035zM92.614 62.988c6.64 0 12.023-5.385 12.07-12.07h-6.082c-.046 3.296-2.692 5.99-5.988 5.99v6.08z"/>
        <path fill="#FFF" d="M92.614 62.988h18.151v-6.035H92.614zM175.386 80.86h-6.081V66.935c0-1.392-.418-4.735-4.457-4.735-2.738 0-4.642 2.043-4.642 4.735V80.86h-6.082V57.046h5.804v2.32c1.53-1.81 3.62-2.923 6.127-2.923 5.57 0 9.285 4.224 9.285 10.49v13.928h.046zM238.03 70.289h.306c.62.08 1.006.427 1.006.853 0 .346-.266.659-1.159.659h-2.132c.313-.932 1.045-1.512 1.98-1.512zm.66 3.178c1.312 0 2.591-.78 2.591-2.285 0-1.006-.66-1.9-1.586-2.365a3.53 3.53 0 0 0-1.433-.307h-.232c-2.246 0-4.064 1.899-4.064 4.177 0 2.286 1.818 4.144 4.064 4.144 1.12 0 2.052-.346 2.744-.966l-1.392-1.352c-.346.386-.853.54-1.352.54-.973 0-1.746-.62-1.979-1.586h2.638zM245.772 70.289h.306c.62.08 1.005.427 1.005.853 0 .346-.266.659-1.159.659h-2.132c.314-.932 1.047-1.512 1.98-1.512zm.659 3.178c1.313 0 2.591-.78 2.591-2.285 0-1.006-.659-1.9-1.585-2.365a3.525 3.525 0 0 0-1.433-.307h-.232c-2.245 0-4.064 1.899-4.064 4.177 0 2.286 1.819 4.144 4.064 4.144 1.119 0 2.052-.346 2.745-.966l-1.392-1.352c-.347.386-.853.54-1.353.54-.966 0-1.745-.62-1.98-1.586h2.638zM233.383 68.703c-.93 0-1.78.465-2.322 1.2a2.062 2.062 0 0 0-1.86-1.2v7.974h2.053v-3.909c0-1.317.542-2.013 1.78-2.013h.89v-2.013l-.541-.039zM253.86 74.932c-1.12 0-2.053-1.006-2.053-2.245 0-1.273.893-2.279 2.052-2.279 1.126 0 2.052.967 2.052 2.28 0 1.278-.926 2.244-2.052 2.244m.313-6.382c-.892 0-1.746.346-2.325.926v-2.785h-2.05v9.987c.731 0 1.35-.387 1.744-.966.652.772 1.66 1.12 2.551 1.12h.08c2.085 0 3.791-1.78 3.791-4.145-.04-2.359-1.706-4.137-3.79-4.137M262.607 74.9a2.246 2.246 0 0 1 0-4.49 2.246 2.246 0 0 1 0 4.49m.12-6.39c-2.326-.08-4.224 1.78-4.258 4.064-.08 2.325 1.78 4.217 4.064 4.257 2.32.08 4.218-1.779 4.258-4.064.04-2.325-1.78-4.217-4.065-4.257M225.718 73.271V66.73h-2.013V73.31c0 2.167 1.2 3.522 3.523 3.29v-1.858c-1.006.04-1.51-.348-1.51-1.47"/>
        <path fill="#FFF" d="M223.705 72.729h2.013V66.69h-2.013z"/>
        <path fill="#FFF" d="M223.705 72.73v-2.014c1.123 0 2.013.89 2.013 2.013h-2.013zM227.731 70.716h-2.014a2 2 0 0 1 2.014-2.013v2.013zM221.692 70.716c2.206 0 4.025-1.819 4.025-4.026h-2.012c0 1.084-.89 1.974-2.013 2.013v2.013z"/>
        <path fill="#FFF" d="M221.692 70.716h6.039v-2.013h-6.039z"/>
        <path fill="#82C51B" d="M220.725 72.652a4.245 4.245 0 0 1-4.258 4.258 4.247 4.247 0 0 1-4.26-4.258 4.247 4.247 0 0 1 4.26-4.258c2.322 0 4.258 1.897 4.258 4.258"/>
        <path fill="#FFF" d="M215.418 73.813c-.307 0-.613-.273-.613-.813 0-.54.266-.926.613-.926.313 0 .507.307.507.846 0 .586-.194.893-.507.893m.739-1.819c-.12-.153-.312-.233-.579-.233a.879.879 0 0 0-.773.506v-1.592h-.813v.353h.347v3.091h.267l.159-.459c.153.266.386.46.733.46a.911.911 0 0 0 .619-.267c.234-.233.347-.58.347-.933 0-.386-.073-.693-.307-.926M217.318 74.471c0 .04-.039.116-.039.155.193-.039.31-.155.465-.58l-.775-1.936h-.309v-.31h1.2v.31h-.388l.542 1.432.542-1.432h-.309v-.31h.967v.31h-.309l-.775 1.897c-.309.696-.58.89-.928.89-.31 0-.465-.155-.465-.387 0-.155.116-.31.31-.31.155-.039.271.116.271.271"/>
        <path fill="#999" d="M219.95 56.587v7.51h-.89v-3.484h-4.103v3.484h-.93v-7.51h.93v3.135h4.102v-3.135zM227.497 63.32c-1.546 0-2.825-1.312-2.825-3.018 0-1.699 1.28-3.018 2.825-3.018 1.592 0 2.824 1.279 2.824 3.018 0 1.706-1.272 3.018-2.824 3.018m0-6.929c-2.053 0-3.71 1.746-3.71 3.911 0 2.205 1.657 3.911 3.71 3.911 2.052 0 3.718-1.739 3.718-3.911 0-2.245-1.626-3.911-3.718-3.911M237.177 57.439v6.619h-.93v-6.62h-2.361v-.89h5.652v.89zM248.48 56.587v.89h-4.451v2.284h4.025v.891h-4.025v2.593h4.45v.891h-5.38v-7.51zM257.112 64.097h-4.8v-7.51h.93v6.62h3.87zM263.035 64.213c-1.742 0-2.864-1.006-2.864-2.516h.968c0 1.006.773 1.626 1.896 1.626 1.277 0 1.896-.542 1.896-1.394 0-.619-.27-1.045-1.935-1.355-1.664-.309-2.632-.813-2.632-2.09 0-1.278 1.045-2.129 2.632-2.129 1.626 0 2.671.89 2.671 2.322h-.929c0-.89-.58-1.471-1.703-1.471-1.16 0-1.703.504-1.703 1.2 0 .658.348.968 1.896 1.239 1.665.31 2.671.774 2.671 2.207-.038 1.587-1.2 2.361-2.864 2.361"/>
    </g>
</svg>
