<svg xmlns="http://www.w3.org/2000/svg" width="132" height="32" viewBox="0 0 132 32">
    <g fill="none" fill-rule="nonzero">
        <g fill="#111">
            <path d="M76.151 22.37c-1.858 0-3.346-1.162-3.862-3.035h5.102c2.52 0 5.04-1.503 5.04-4.385 0-1.986-1.25-3.695-3.058-4.57a7.992 7.992 0 0 0-2.767-.627h-.01c-.166 0-.31 0-.434-.01-4.327.01-7.88 3.643-7.88 8.079 0 4.436 3.563 8.017 7.89 8.017 2.18 0 3.997-.69 5.318-1.852l-2.705-2.594c-.682.67-1.653.978-2.634.978zm0-9.17c.104 0 .207 0 .31.01.052 0 .093.011.145.011.041 0 .093.01.134.02 1.198.165 1.973.834 1.973 1.627 0 .638-.496 1.245-2.22 1.245H72.35c.568-1.78 2.004-2.912 3.8-2.912zM91.177 22.37c-1.859 0-3.346-1.162-3.862-3.035h5.101c2.52 0 5.04-1.503 5.04-4.385 0-1.986-1.25-3.695-3.057-4.57a7.992 7.992 0 0 0-2.767-.627h-.01c-.166 0-.31 0-.434-.01-4.327.01-7.88 3.643-7.88 8.079 0 4.436 3.563 8.017 7.89 8.017 2.179 0 3.996-.69 5.318-1.852l-2.705-2.594c-.692.67-1.653.978-2.634.978zm0-9.17c.104 0 .207 0 .31.01.052 0 .093.011.145.011.04 0 .093.01.134.02 1.198.165 1.972.834 1.972 1.627 0 .638-.495 1.245-2.22 1.245h-4.141c.568-1.78 2.003-2.912 3.8-2.912zM67.188 10.123c-1.818 0-3.46.916-4.482 2.326a3.966 3.966 0 0 0-3.615-2.346v15.366h3.945v-7.575c.01-2.573 1.074-3.87 3.49-3.87h1.756v-3.9h-1.094zM107.463 9.794c-1.766 0-3.346.659-4.513 1.79V6.162h-3.976v19.308l.01-.01a3.964 3.964 0 0 0 3.357-1.853c1.28 1.492 3.253 2.192 4.977 2.192h.155c4.038 0 7.322-3.458 7.322-7.987 0-4.559-3.294-8.017-7.332-8.017zm-.568 12.371c-2.179 0-3.945-1.935-3.945-4.323 0-2.439 1.766-4.415 3.945-4.415s3.945 1.904 3.945 4.415c0 2.45-1.756 4.323-3.945 4.323zM131.948 17.935c-.082 4.446-3.769 7.976-8.23 7.894-4.462-.082-8.004-3.757-7.921-8.203.083-4.446 3.77-7.976 8.23-7.894 4.462.093 8.004 3.767 7.921 8.203zm-8.075-4.498a4.34 4.34 0 0 0-4.348 4.333c0 2.398 1.952 4.333 4.348 4.333a4.34 4.34 0 0 0 4.347-4.333 4.334 4.334 0 0 0-4.347-4.333zM52.265 18.964V6.222h-3.904v12.712c0 4.157 2.365 6.844 6.837 6.37v-3.54c-1.952.123-2.933-.68-2.933-2.8z"/>
            <path d="M48.361 6.222h3.904v11.672h-3.904z"/>
            <path d="M48.361 17.904v-3.89a3.894 3.894 0 0 1 3.904 3.89h-3.904zM56.179 14.014h-3.904a3.894 3.894 0 0 1 3.904-3.89v3.89zM44.478 13.993c4.296-.01 7.777-3.479 7.797-7.76h-3.914a3.896 3.896 0 0 1-3.883 3.86"/>
            <path d="M44.478 10.082h11.7v3.911h-11.7"/>
        </g>
        <g>
            <path fill="#FFC20E" d="M.083 4.198C5.787.216 13.66 1.595 17.649 7.285c3.999 5.68 2.614 13.52-3.1 17.492L.083 4.198z"/>
            <path fill="#6950A1" d="M32.125 27.864c-5.703 3.982-13.577 2.603-17.566-3.087-3.999-5.68-2.614-13.52 3.1-17.492l14.466 20.579z"/>
            <path fill="#8DC63F" d="M4.226 31.99c-3.999-5.68-2.614-13.52 3.1-17.492 5.704-3.982 13.578-2.603 17.566 3.087L4.226 31.99z"/>
            <path fill="#009057" d="M27.992.082c4 5.68 2.614 13.52-3.1 17.492-5.704 3.982-13.577 2.603-17.566-3.087L27.992.082z"/>
            <ellipse cx="16.226" cy="14.977" fill="#FFF" rx="1.626" ry="1.632" transform="rotate(-76.714 16.226 14.977)"/>
        </g>
    </g>
</svg>
