<svg xmlns="http://www.w3.org/2000/svg" width="132" height="32" viewBox="0 0 132 32">
    <g fill="none" fill-rule="nonzero">
        <path fill="#FFF" d="M48.361 13.993h-3.883v-3.911h.268a3.896 3.896 0 0 0 3.615-3.85v-.01h3.904v.01h.01c0 .124-.004.247-.01.369v3.481h3.914v3.931h-3.904v-.02h-.01V18.964c0 2.12.981 2.923 2.933 2.8v3.54c-4.472.474-6.837-2.213-6.837-6.37v-4.941zm27.79 8.378c.981 0 1.952-.309 2.634-.978l2.705 2.594c-1.321 1.163-3.139 1.852-5.318 1.852-4.327 0-7.89-3.581-7.89-8.017s3.553-8.07 7.88-8.08c.124.01.268.01.433.01h.01c.982.052 1.911.258 2.768.628 1.808.875 3.057 2.584 3.057 4.57 0 2.882-2.52 4.385-5.04 4.385H72.29c.516 1.873 2.004 3.036 3.862 3.036zm0-9.17c-1.796 0-3.232 1.132-3.8 2.912h4.141c1.725 0 2.22-.607 2.22-1.245 0-.793-.774-1.462-1.972-1.626a.606.606 0 0 0-.134-.02c-.052 0-.093-.011-.145-.011-.103-.01-.206-.01-.31-.01zm15.026 9.17c.981 0 1.942-.309 2.634-.978l2.705 2.594c-1.322 1.163-3.14 1.852-5.318 1.852-4.327 0-7.89-3.581-7.89-8.017s3.553-8.07 7.88-8.08c.123.01.268.01.433.01h.01c.982.052 1.911.258 2.768.628 1.808.875 3.057 2.584 3.057 4.57 0 2.882-2.52 4.385-5.04 4.385h-5.101c.516 1.873 2.003 3.036 3.862 3.036zm0-9.17c-1.797 0-3.232 1.132-3.8 2.912h4.141c1.725 0 2.22-.607 2.22-1.245 0-.793-.774-1.462-1.972-1.626a.606.606 0 0 0-.134-.02c-.052 0-.093-.011-.145-.011-.103-.01-.206-.01-.31-.01zm-23.99-3.078h1.095v3.9h-1.755c-2.417 0-3.48 1.298-3.49 3.87v7.576H59.09V10.103c1.611 0 2.995.967 3.615 2.346 1.022-1.41 2.664-2.326 4.482-2.326zm40.276-.33c4.038 0 7.332 3.459 7.332 8.018 0 4.529-3.284 7.987-7.322 7.987h-.155c-1.724 0-3.697-.7-4.977-2.192a3.964 3.964 0 0 1-3.357 1.852l-.01.01V6.162h3.976v5.424c1.167-1.132 2.747-1.791 4.513-1.791zm-.568 12.372c2.19 0 3.945-1.873 3.945-4.323 0-2.511-1.766-4.415-3.945-4.415s-3.945 1.976-3.945 4.415c0 2.388 1.766 4.323 3.945 4.323zm25.053-4.23c-.082 4.446-3.769 7.976-8.23 7.894-4.462-.082-8.004-3.757-7.921-8.203.083-4.446 3.77-7.976 8.23-7.894 4.462.093 8.004 3.767 7.921 8.203zm-8.075-4.498a4.34 4.34 0 0 0-4.348 4.333c0 2.398 1.952 4.333 4.348 4.333a4.34 4.34 0 0 0 4.347-4.333 4.334 4.334 0 0 0-4.347-4.333z"/>
        <g>
            <path fill="#FFC20E" d="M.083 4.198C5.787.216 13.66 1.595 17.649 7.285c3.999 5.68 2.614 13.52-3.1 17.492L.083 4.198z"/>
            <path fill="#6950A1" d="M32.125 27.864c-5.703 3.982-13.577 2.603-17.566-3.087-3.999-5.68-2.614-13.52 3.1-17.492l14.466 20.579z"/>
            <path fill="#8DC63F" d="M4.226 31.99c-3.999-5.68-2.614-13.52 3.1-17.492 5.704-3.982 13.578-2.603 17.566 3.087L4.226 31.99z"/>
            <path fill="#009057" d="M27.992.082c4 5.68 2.614 13.52-3.1 17.492-5.704 3.982-13.577 2.603-17.566-3.087L27.992.082z"/>
            <ellipse cx="16.226" cy="14.977" fill="#FFF" rx="1.626" ry="1.632" transform="rotate(-76.714 16.226 14.977)"/>
        </g>
    </g>
</svg>
